<svg id="Layer_1" data-name="Layer 1" xmlns="http://www.w3.org/2000/svg" viewBox="0 0 400 300"><defs><style>.cls-1,.cls-2{fill:none;}.cls-2{stroke:#000;stroke-miterlimit:10;stroke-width:4px;}</style></defs><title>Artboard 1</title><path d="M177.52,125c-.06-.33-.09-.54-.14-.71a54.28,54.28,0,0,1,.83-27.09c2.94-10.23,7.84-20.78,15.22-28.57,7.78-8.22,18.77-14.85,30.09-16.5,17.55-2.55,35.37,9.44,39.61,26.66,2,8,1.58,16.79-.18,24.74a44.28,44.28,0,0,1-3.88,11.62A31,31,0,0,0,256,122c-.74,3.2-.23,5.82,0,6,.67.52,8.77-12.35,12.54-15.76a32.65,32.65,0,0,1,14.69-7.66c6.95-1.52,15.18-1.12,20.76,3.78,6.09,5.33,6.66,14.39,3.37,21.41-4,8.48-12.25,14.19-20.5,18a96.55,96.55,0,0,1-12.25,4.61c-.18.06-.36.12-.58.21a35.85,35.85,0,0,1,7.26,7.73,38.45,38.45,0,0,1,6.59,16.26,3.6,3.6,0,0,0,.37,1.31c2.41,4,10.07,3.61,12.72,7a9.76,9.76,0,0,0,3.61,3l.48.21a39.21,39.21,0,0,0-7.32,3.38c-1.7,1.06-3.43,1.62-7,2-2.22.22-3.87,2.17-4.5,4.36a51.36,51.36,0,0,1-8,15.83,61.25,61.25,0,0,1-13.47,13.47l-2.08,1.53L259,231a2,2,0,0,0-.34.13c-2.38,1.18-4.73,2.52-7.18,3.51-14.06,5.66-27.62,6.24-40.45,1.53a39.87,39.87,0,0,1-19.89-15.52c-.5-.77-1-1.56-1.47-2.37-.27.3-.48.5-.69.74a83.64,83.64,0,0,1-25.92,19.57,78.33,78.33,0,0,1-24,7.31c-16.25,2.26-30.71-.3-43.37-7.85a52.82,52.82,0,0,1-15.55-14l-1.85-2.52-1.11-1.78a3.25,3.25,0,0,0-.18-.43,47.27,47.27,0,0,1-3.9-8.3,56,56,0,0,1-3.27-16,57.12,57.12,0,0,1,1.46-15.85C73.55,169.21,80.15,150.79,91,139c17.56-19.06,50.8-25.71,84-16m-71.6,17.54a54.09,54.09,0,0,0-7.85,8.92,93.88,93.88,0,0,0-9.43,15.09,74.49,74.49,0,0,0-3.68,8.86c-4.26,12.62-4.62,26.9,1,39,7.27,15.72,24.09,25.91,41.35,27.33s34.59-5.19,48.17-15.93c11.42-9,20.66-21.3,24.16-35.43s.7-30.13-9-41c-5.71-6.43-13.48-10.82-21.69-13.37A85.84,85.84,0,0,0,141,130.63c-11.47,0-23.44,1.46-33.59,7.15A24.69,24.69,0,0,0,103.4,140.54ZM205.8,224.2a11.5,11.5,0,0,0,4.47,3.65,2.7,2.7,0,0,0,1.79.32,3.09,3.09,0,0,0,1.22-.8A95.31,95.31,0,0,0,227,212.3a44.13,44.13,0,0,0,7.88-18.66c1.4-9.58-1.28-19.33-5.16-28.21-1.18-2.69-2.71-5.57-5.46-6.63a8.1,8.1,0,0,0-5.94.39,21.43,21.43,0,0,0-2.87,1.45,8.37,8.37,0,0,0-1.38.85c-.13.11-.71,1.19-.78,1.17,5.2,1.1,9.31,5.44,11.23,10.4s1.92,10.46,1.23,15.74C224,202.61,217.13,216.08,205.8,224.2ZM227,232.89c12.46,2.75,25.67-2.45,35.25-10.89a51.81,51.81,0,0,0,14.89-21.79,42.57,42.57,0,0,0,.66-26.24,29.34,29.34,0,0,0-9.3-14.37,32,32,0,0,0-13.8-5.93,39,39,0,0,0-10.55-.75c-1.8.14-1.34,1.05-.15,1.67a10.67,10.67,0,0,1,1.91,1.18c2.74,2.24,4.1,5.44,5.28,8.63,4.2,11.34,6.52,24,2.67,35.46-2.28,6.79-6.6,12.74-11.47,18S232,227.82,227,232.89Zm-18.72-63c0,.15-.06.19-.05.21s0,.32,0,.49a64.13,64.13,0,0,1-3,23.87,72.11,72.11,0,0,1-8.8,18.27.67.67,0,0,0-.08.79c.93,1.5,1.8,3,2.76,4.52.58.93.92.94,2.1.36l.11-.07a12.28,12.28,0,0,0,4.1-3.64,32.67,32.67,0,0,0,5.63-11.4,49.6,49.6,0,0,0-.29-28.46A16.47,16.47,0,0,0,208.25,169.93Z"/><path d="M120.87,196.77a.93.93,0,0,1,.44-.52c.84-.43,3.08.56,3.94.8a67.32,67.32,0,0,0,45.34-3.57,21.81,21.81,0,0,1-5.2,14c-4.08,4.57-10.27,6.85-16.38,7.25a30.47,30.47,0,0,1-16.37-3.46,26.15,26.15,0,0,1-11.42-12.12A3.72,3.72,0,0,1,120.87,196.77Z"/><path d="M143.31,157.39a13.63,13.63,0,0,1,4.61-7.56,10.63,10.63,0,0,1,2.09-1.37c4.43-2.31,10.05-1.66,14.79,1.74a20,20,0,0,1,6.8,8.2c3,6.56,3.23,12.75-.36,18.33a11.22,11.22,0,0,1-4.9,4.21c-4.13,1.93-9.34,1.32-13.72-1.59a21.83,21.83,0,0,1-9.31-22Z"/><path d="M108.32,156.33a12,12,0,0,1,7.7-3.74,11.05,11.05,0,0,1,7.48,2,16.32,16.32,0,0,1,6.1,7.76,19.58,19.58,0,0,1,1.34,10.91c-1,6.22-3.84,10.84-9.3,13.12a10.53,10.53,0,0,1-5.74.62c-4.22-.64-8.08-3.71-10.32-8.14a19.48,19.48,0,0,1-2.2-10.89A17.88,17.88,0,0,1,108.32,156.33Z"/><path class="cls-1" d="M173.34,185.73l-.17,0"/><path class="cls-1" d="M62.64,124.72c4.6,1,8.17,4.5,11.42,7.89,4.79,5,9.6,10.32,11.71,16.91"/><path class="cls-2" d="M108,94c7.73,1.13,13.6,5,16.68,9.31s3.81,9,4.51,13.69c.2,1.37,1.29,3.93-.19,5"/><path class="cls-2" d="M74,102c10.63,1.3,18.7,5.75,22.94,10.69s5.25,10.38,6.2,15.72c.28,1.58,1.86,5.59-1.57,4.57"/></svg>